<?xml version="1.0" encoding="UTF-8"?>
<svg id="Layer_1" data-name="Layer 1" xmlns="http://www.w3.org/2000/svg" viewBox="0 0 16 16">
  <g>
    <path d="M13.5,9.41c-.23,.29-.57,.47-.93,.5h-.06s-.01,.06-.01,.06c-.02,.09-.05,.17-.08,.27-.62,1.71-1.67,2.41-3.4,2.27-1.82-.01-2.97-1.49-3.31-2.96-.02-.08-.04-.17-.06-.27-.06-.3-.15-.67-.18-1.01v-.1s-.11,.04-.11,.04c-.04,.02-.08,.03-.12,.03-.1,0-.19-.04-.25-.12-.12-.15-.1-.36,.05-.48l.02-.02c.27-.26,.5-.55,.69-.87,.26-.41,.47-.86,.67-1.3,.23-.51,.48-1.05,.81-1.51,.45-.7,1.27-1.08,2.09-.99l.11,.02c.31,.05,.82,.13,.97,.37,.05,.08,.06,.17,.03,.27-.13,.29-.35,.23-.7,.09l-.04-.02c-.19-.05-.38-.08-.57-.09-.83-.06-1.33,.61-1.56,1.02-.22,.38-.4,.77-.58,1.16-.25,.54-.51,1.1-.85,1.59-.04,.06-.08,.12-.13,.18l-.02,.03v.03c.01,.05,.02,.11,.03,.17,.04,.3,.1,.75,.26,1.38,.09,.34,.2,.68,.33,1.02,.34,.73,1.11,1.6,2.16,1.65,1.73,.22,2.6-.35,3.12-2.03,.05-.12,.06-.28,.07-.43,.03-.37,.06-.6,.37-.6,.18,.01,.32,.16,.31,.35v.13l.1-.03s.03,0,.03-.01c.27-.1,.4-.45,.37-.72-.03-.24-.17-.4-.38-.42h-.02s-.02,0-.02,0c-.18,.05-.37-.02-.47-.18-.06-.09-.1-.19-.1-.29,0-.57-.07-1.13-.21-1.69-.06-.15-.05-.28,.04-.38,.08-.1,.22-.14,.34-.11,.12,.03,.2,.13,.24,.29,.13,.49,.21,.99,.23,1.51v.04s0,.06,0,.1v.07h.07c.36,.04,.65,.28,.81,.65,.19,.46,.12,1.01-.17,1.37Z"/>
    <path d="M12.51,9.91v.05c-.04,.09-.06,.17-.1,.27-.62,1.71-1.67,2.41-3.4,2.27-1.82-.01-2.97-1.49-3.31-2.96-.02-.08-.04-.17-.06-.27-.06-.3-.15-.67-.18-1.01v-.1s-.11,.04-.11,.04c-.04,.02-.08,.03-.12,.03-.1,0-.19-.04-.25-.12-.12-.15-.1-.36,.05-.48l.02-.02c.27-.26,.5-.55,.69-.87,.26-.41,.47-.86,.67-1.3,.23-.51,.48-1.05,.81-1.51,.45-.7,1.27-1.08,2.09-.99l.11,.02c.31,.05,.82,.13,.97,.37,.05,.08,.06,.17,.03,.27-.13,.29-.35,.23-.7,.09l-.04-.02c-.19-.05-.38-.08-.57-.09-.83-.06-1.33,.61-1.56,1.02-.22,.38-.4,.77-.58,1.16-.25,.54-.51,1.1-.85,1.59-.04,.06-.08,.12-.13,.18l-.02,.03v.03c.01,.05,.02,.11,.03,.17,.04,.3,.1,.75,.26,1.38,.09,.34,.2,.68,.33,1.02,.34,.73,1.11,1.6,2.16,1.65,1.73,.22,2.6-.35,3.12-2.03,.05-.12,.06-.28,.07-.43,.03-.37,.06-.6,.37-.6,.18,.01,.32,.16,.31,.35v.13l.1-.03s.03,0,.03-.01c.27-.1,.4-.45,.37-.72-.03-.24-.17-.4-.38-.42h-.02s-.02,0-.02,0c-.18,.05-.37-.02-.47-.18-.06-.09-.1-.19-.1-.29,0-.57-.07-1.13-.21-1.69-.06-.15-.05-.28,.04-.38,.08-.1,.22-.14,.34-.11,.12,.03,.2,.13,.24,.29,.13,.49,.21,.99,.23,1.51v.04s0,.06,0,.1v.07h.07c.36,.04,.65,.28,.81,.65,.19,.46,.12,1.01-.17,1.37-.23,.29-.57,.47-.93,.5h-.06Z"/>
  </g>
  <path d="M10.08,8.81c-.21,.15-.64,.12-.89,0h0c-.47-.19-.45-.74-.43-1.22,0-.11,0-.22,0-.3,.01-.1,0-.21,0-.31,0-.19,0-.38,.07-.52,.06-.11,.16-.15,.25-.15,.05,0,.1,.01,.14,.03,.13,.06,.24,.19,.19,.37h0c0,.16,0,.32-.01,.47-.01,.32-.03,.66,0,.98v.05s.05,.02,.05,.02c.11,.04,.23,.05,.34,.03,.18-.04,.35,.07,.39,.24,.02,.15-.02,.25-.12,.33Z"/>
  <g>
    <path d="M10.99,7.04v.1c-.02,.18-.18,.32-.35,.31h-.02c-.09,0-.16-.04-.2-.1-.08-.1-.11-.28-.07-.48h0s0-.02,0-.02c-.01-.14,.03-.27,.12-.36,.06-.06,.14-.09,.23-.09,.32,.03,.32,.27,.29,.65Z"/>
    <path d="M10.99,7.04v.1c-.02,.18-.18,.32-.35,.31h-.02c-.09,0-.16-.04-.2-.1-.08-.1-.11-.28-.07-.48h0s0-.02,0-.02c-.01-.14,.03-.27,.12-.36,.06-.06,.14-.09,.23-.09,.32,.03,.32,.27,.29,.65Z"/>
  </g>
  <g>
    <path d="M8,7.04v.1c-.02,.18-.18,.32-.35,.31h-.02c-.09,0-.15-.04-.2-.11-.08-.1-.11-.28-.07-.48h0v-.02c-.01-.14,.03-.27,.11-.36,.06-.06,.14-.09,.23-.09,.32,.03,.33,.27,.3,.65Z"/>
    <path d="M8,7.04v.1c-.02,.18-.18,.32-.35,.31h-.02c-.09,0-.15-.04-.2-.11-.08-.1-.11-.28-.07-.48h0v-.02c-.01-.14,.03-.27,.11-.36,.06-.06,.14-.09,.23-.09,.32,.03,.33,.27,.3,.65Z"/>
  </g>
  <g>
    <path d="M11.41,9.6h0c-.08,.61-.38,1.16-.78,1.42-.29,.19-.62,.23-.98,.13l-.16-.04c-.12-.06-.17-.15-.19-.21-.04-.12,0-.26,.07-.35,.09-.09,.22-.1,.37-.05,.16,.07,.32,.07,.45,.01,.25-.11,.38-.4,.48-.64l.04-.12h-.13c-.1,.02-.24,.05-.4,.08-.43,.08-1.15,.21-1.33,.05-.14-.12-.15-.33-.03-.46,.03-.03,.06-.06,.08-.07,.13-.04,.27-.06,.41-.06,.34-.02,.68-.08,1.01-.13,.18-.03,.36-.06,.54-.09,.14-.04,.28,0,.39,.1,.12,.11,.18,.28,.15,.44Z"/>
    <path d="M11.41,9.6h0c-.08,.61-.38,1.16-.78,1.42-.29,.19-.62,.23-.98,.13l-.16-.04c-.12-.06-.17-.15-.19-.21-.04-.12,0-.26,.07-.35,.09-.09,.22-.1,.37-.05,.16,.07,.32,.07,.45,.01,.25-.11,.38-.4,.48-.64l.04-.12h-.13c-.1,.02-.24,.05-.4,.08-.43,.08-1.15,.21-1.33,.05-.14-.12-.15-.33-.03-.46,.03-.03,.06-.06,.08-.07,.13-.04,.27-.06,.41-.06,.34-.02,.68-.08,1.01-.13,.18-.03,.36-.06,.54-.09,.14-.04,.28,0,.39,.1,.12,.11,.18,.28,.15,.44Z"/>
  </g>
  <path d="M15.92,12.22v.02c-.08,.12-.22,.21-.35,.29-.06,.04-.11,.07-.16,.11-.87,.58-1.83,.96-2.86,1.15-.09,0-.19,.02-.3,.04-.29,.05-.65,.11-.83-.03-.07-.05-.11-.14-.12-.25,0-.1,.03-.17,.09-.23,.09-.08,.25-.12,.46-.11,.28-.02,.56-.06,.84-.11,.57-.12,1.11-.32,1.63-.58,.34-.17,.64-.36,1-.64l.03-.03v-.05c-.09-.55-.24-1.33-.46-2.37-.36-1.66-.7-2.87-1.4-4.19-.14-.25-1.34-2.48-2.29-2.42-.06,0-.13,.01-.2,.02-.13,.02-.26,.04-.39,.02-.24-.02-.4-.12-.58-.24-.16-.1-.34-.22-.6-.3-.01,0-.31-.1-.73-.08-.88,.03-1.54,.7-1.97,1.15l-.09,.09c-.62,.63-1,1.43-1.36,2.21-.18,.38-.39,.76-.58,1.13-.18,.33-.36,.68-.53,1.03-.7,1.47-1.57,3.3-3.31,4.03l-.11,.05,.08,.08c1.73,1.79,3.82,2.21,6.2,1.25,.09-.03,.19,0,.28,.07,.1,.09,.14,.21,.12,.3-.19,.69-2.18,.76-3.32,.69-1.16-.05-2.37-.59-3.4-1.51-.05-.06-.11-.12-.18-.18-.39-.38-.69-.72-.46-1.05,.17-.13,.36-.22,.56-.31,.17-.08,.35-.16,.51-.27,1.12-.72,1.7-1.91,2.26-3.06,.16-.33,.33-.67,.5-.99,.27-.45,.5-.94,.73-1.4,.31-.64,.63-1.31,1.05-1.9,.57-.76,1.19-1.32,1.83-1.68,.6-.3,1.35-.56,2.68,.07,.1,.05,.19,.1,.29,.16l.03,.02h.03c.84-.28,1.7,.23,2.64,1.56,.07,.1,.14,.2,.21,.29,.32,.44,.59,.82,.93,1.5,.54,1.08,.82,2.25,1.4,4.79,.17,.74,.38,1.66,.19,1.85Z"/>
</svg>